0
SECTION
2
HEADER
9
$INSUNITS
70
4
9
$ACADVER
1
AC1014
9
$HANDSEED
5
FFFF
0
ENDSEC
0
SECTION
2
TABLES
0
TABLE
2
VPORT
5
8
100
AcDbSymbolTable
0
ENDTAB
0
TABLE
2
LTYPE
5
5
100
AcDbSymbolTable
0
LTYPE
5
14
100
AcDbSymbolTableRecord
100
AcDbLinetypeTableRecord
2
BYBLOCK
70
0
0
LTYPE
5
15
100
AcDbSymbolTableRecord
100
AcDbLinetypeTableRecord
2
BYLAYER
70
0
0
ENDTAB
0
TABLE
2
LAYER
5
2
100
AcDbSymbolTable
70
2
0
LAYER
5
50
100
AcDbSymbolTableRecord
100
AcDbLayerTableRecord
2
0
70
0
6
CONTINUOUS
0
ENDTAB
0
TABLE
2
STYLE
5
3
100
AcDbSymbolTable
70
1
0
STYLE
5
11
100
AcDbSymbolTableRecord
100
AcDbTextStyleTableRecord
2
STANDARD
70
0
0
ENDTAB
0
TABLE
2
VIEW
5
6
100
AcDbSymbolTable
70
0
0
ENDTAB
0
TABLE
2
UCS
5
7
100
AcDbSymbolTable
70
0
0
ENDTAB
0
TABLE
2
APPID
5
9
100
AcDbSymbolTable
70
2
0
APPID
5
12
100
AcDbSymbolTableRecord
100
AcDbRegAppTableRecord
2
ACAD
70
0
0
ENDTAB
0
TABLE
2
DIMSTYLE
5
A
100
AcDbSymbolTable
70
1
0
ENDTAB
0
TABLE
2
BLOCK_RECORD
5
1
100
AcDbSymbolTable
70
1
0
BLOCK_RECORD
5
1F
100
AcDbSymbolTableRecord
100
AcDbBlockTableRecord
2
*MODEL_SPACE
0
BLOCK_RECORD
5
1B
100
AcDbSymbolTableRecord
100
AcDbBlockTableRecord
2
*PAPER_SPACE
0
ENDTAB
0
ENDSEC
0
SECTION
2
BLOCKS
0
BLOCK
5
20
100
AcDbEntity
100
AcDbBlockBegin
2
*MODEL_SPACE
0
ENDBLK
5
21
100
AcDbEntity
100
AcDbBlockEnd
0
BLOCK
5
1C
100
AcDbEntity
100
AcDbBlockBegin
2
*PAPER_SPACE
0
ENDBLK
5
1D
100
AcDbEntity
100
AcDbBlockEnd
0
ENDSEC
0
SECTION
2
ENTITIES
0
LWPOLYLINE
5
100
100
AcDbEntity
8
0
100
AcDbPolyline
90
16
70
1
43
0.0
10
-244.57550000000026
20
121.82449999999974
10
-240.07550000000026
20
121.8244999999992
42
0.41421356237305573
10
-237.82549999999887
20
124.07449999999912
42
-0.41421356237340717
10
-237.07550000000003
20
124.82449999999893
10
-175.02550000000002
20
124.82449999999892
42
0.99999999999999989
10
-175.02550000000011
20
126.32450000000003
10
-237.07549999999995
20
126.32449999999999
42
0.41421356237310425
10
-239.32549999999992
20
124.07449999999996
42
-0.41421356237315055
10
-240.07549999999986
20
123.32450000000001
10
-244.57549999999998
20
123.32449999999973
42
-0.41421356237328233
10
-245.32550000000001
20
124.07449999999999
42
0.41421356237310658
10
-247.57550000000003
20
126.32450000000003
10
-309.62549999999999
20
126.32450000000003
42
0.99999999999999989
10
-309.62549999999999
20
124.8245
10
-247.57550000000003
20
124.82449999999997
42
-0.414213562373213
10
-246.82549999999998
20
124.07449999999974
42
0.41421356237309276
0
LWPOLYLINE
5
101
100
AcDbEntity
8
0
100
AcDbPolyline
90
16
70
1
43
0.0
10
-66.749499999999784
20
124.82450000000188
10
-4.6994999999996878
20
124.82450000000188
42
0.99999999999999989
10
-4.6994999999996878
20
126.32450000000003
10
-66.749499999999983
20
126.32449999999999
42
0.41421356237331936
10
-68.999499999997823
20
124.07449999999999
42
-0.414213562372443
10
-69.749499999999998
20
123.32450000000001
10
-74.249500000000054
20
123.3245000000019
42
-0.4142135623721967
10
-74.99950000000004
20
124.07449999999999
42
0.41421356237341761
10
-77.24950000000014
20
126.32449999999992
10
-139.29949999999997
20
126.32449999999838
42
0.99999999999999989
10
-139.29949999999994
20
124.82449999999841
10
-77.249499999999898
20
124.82450000000208
42
-0.41421356237312978
10
-76.49949999999987
20
124.07450000000213
42
0.41421356237309276
10
-74.249499999999927
20
121.82450000000209
10
-69.749499999999813
20
121.82450000000195
42
0.41421356237309853
10
-67.49949999999977
20
124.07450000000188
42
-0.41421356237311585
0
LWPOLYLINE
5
102
100
AcDbEntity
8
0
100
AcDbPolyline
90
4
70
1
43
0.0
10
-175.02350000000001
20
-0.99950000000000094
10
-309.62350000000004
20
-0.99949999999999428
42
0.99999999999999989
10
-309.62350000000004
20
-2.4995000000000189
10
-175.02350000000001
20
-2.4995000000000016
42
0.99999999999999989
0
LWPOLYLINE
5
103
100
AcDbEntity
8
0
100
AcDbPolyline
90
4
70
1
43
0.0
10
-4.6995000000000076
20
-0.99950000000000094
10
-139.29950000000002
20
-0.99949999999999428
42
0.99999999999999989
10
-139.29950000000002
20
-2.4995000000000189
10
-4.6995000000000129
20
-2.4995000000000016
42
0.99999999999999989
0
CIRCLE
5
104
100
AcDbEntity
8
0
100
AcDbCircle
10
-242.32550000000003
20
126.3245
30
0
40
1.3499999999999801
210
0
220
-0
230
1
0
CIRCLE
5
105
100
AcDbEntity
8
0
100
AcDbCircle
10
-71.999499999999998
20
126.3245
30
0
40
1.3499999999999979
210
0
220
-0
230
1
0
CIRCLE
5
106
100
AcDbEntity
8
0
100
AcDbCircle
10
-242.32550000000001
20
-5.4995000000000003
30
0
40
1.3499999999999801
210
0
220
-0
230
1
0
CIRCLE
5
107
100
AcDbEntity
8
0
100
AcDbCircle
10
-71.999499999999998
20
-5.4995000000000003
30
0
40
1.3499999999999979
210
0
220
-0
230
1
0
LWPOLYLINE
5
108
100
AcDbEntity
8
0
100
AcDbPolyline
90
36
70
1
43
0.0
10
-239.32549999999998
20
-6.2495000000000118
42
-0.41421356237309243
10
-241.57550000000001
20
-8.4995000000000065
10
-243.07549999999998
20
-8.4995000000000083
42
-0.41421356237309431
10
-245.32550000000001
20
-6.2495000000000003
42
0.41421356237308682
10
-246.07550000000001
20
-5.4995000000000172
10
-312.32500000000005
20
-5.4994999999999994
42
-0.41421356237308732
10
-315.32500000000005
20
-2.4995000000000012
10
-315.32500000000005
20
126.32450000000003
42
-0.41421356237308815
10
-312.32500000000005
20
129.32450000000003
10
-172.32550000000018
20
129.3245
42
-0.41421356237310025
10
-169.32550000000006
20
126.32450000000003
10
-169.32550000000006
20
125.8245
42
0.41421356237308982
10
-168.32550000000003
20
124.8245
10
-145.99950000000001
20
124.8245
42
0.41421356237310025
10
-144.99950000000001
20
125.82450000000001
10
-144.99950000000004
20
126.3245
42
-0.41421356237308815
10
-141.99950000000001
20
129.32450000000003
10
-1.9994999999999763
20
129.3245
42
-0.41421356237308682
10
1.0004999999999953
20
126.32450000000003
10
1.0004999999999942
20
-2.4995000000000007
42
-0.41421356237309626
10
-1.9995000000000118
20
-5.4995000000000029
10
-68.249499999999998
20
-5.4995000000000003
42
0.4142135623730937
10
-68.999500000000012
20
-6.2495000000000012
42
-0.41421356237309492
10
-71.249499999999983
20
-8.4994999999999958
10
-72.749499999999912
20
-8.4994999999999976
42
-0.41421356237309775
10
-74.999499999999927
20
-6.2494999999999443
42
0.41421356237308854
10
-75.749499999999898
20
-5.4994999999999497
10
-141.99950000000007
20
-5.4994999999985437
42
-0.41421356237308798
10
-144.99950000000001
20
-2.4994999999985379
10
-144.99950000000001
20
-1.9994999999999929
42
0.41421356237309459
10
-145.99950000000001
20
-0.99949999999999539
10
-168.32550000000001
20
-0.99949999999999328
42
0.41421356237305618
10
-169.32550000000003
20
-1.9994999999999929
10
-169.32550000000003
20
-2.4995000000000123
42
-0.41421356237308848
10
-172.32550000000003
20
-5.4995000000000243
10
-238.57550000000001
20
-5.4995000000000127
42
0.41421356237312362
0
LWPOLYLINE
5
109
100
AcDbEntity
8
0
100
AcDbPolyline
90
8
70
1
43
0.0
10
-311.30000000000001
20
2.5249999999999817
42
-0.41421356237310153
10
-311.80000000000001
20
3.0249999999999999
10
-311.80000000000001
20
16.024999999999999
42
-0.41421356237304563
10
-311.30000000000001
20
16.524999999999999
10
-298.30000000000001
20
16.525000000000002
42
-0.41421356237313406
10
-297.80000000000001
20
16.024999999999999
10
-297.79999999999995
20
3.0249999999999999
42
-0.41421356237307749
10
-298.30000000000001
20
2.5249999999999999
0
LWPOLYLINE
5
110
100
AcDbEntity
8
0
100
AcDbPolyline
90
8
70
1
43
0.0
10
-112.0625
20
64.9375
42
-0.41421356237310542
10
-112.56250000000001
20
64.4375
10
-125.56249999999999
20
64.437499999999986
42
-0.41421356237308982
10
-126.06250000000001
20
64.9375
10
-126.0625
20
77.9375
42
-0.41421356237310025
10
-125.5625
20
78.4375
10
-112.56250000000001
20
78.437500000000014
42
-0.41421356237309503
10
-112.0625
20
77.9375
0
LWPOLYLINE
5
111
100
AcDbEntity
8
0
100
AcDbPolyline
90
8
70
1
43
0.0
10
-240.65000000000003
20
45.887500000000003
42
-0.4142135623730222
10
-241.15000000000003
20
45.387500000000003
10
-254.15000000000003
20
45.387500000000003
42
-0.41421356237313145
10
-254.65000000000003
20
45.887500000000003
10
-254.65000000000006
20
58.88750000000001
42
-0.41421356237307422
10
-254.15000000000003
20
59.387500000000003
10
-241.15000000000003
20
59.387499999999989
42
-0.41421356237312101
10
-240.65000000000001
20
58.88750000000001
0
LWPOLYLINE
5
112
100
AcDbEntity
8
0
100
AcDbPolyline
90
8
70
1
43
0.0
10
-73.962500000000006
20
64.9375
42
-0.41421356237310542
10
-74.462500000000006
20
64.4375
10
-87.462500000000034
20
64.437500000000014
42
-0.4142135623730846
10
-87.962500000000006
20
64.9375
10
-87.962500000000006
20
77.9375
42
-0.41421356237310025
10
-87.46250000000002
20
78.4375
10
-74.462499999999991
20
78.4375
42
-0.4142135623730846
10
-73.962500000000006
20
77.9375
0
LWPOLYLINE
5
113
100
AcDbEntity
8
0
100
AcDbPolyline
90
8
70
1
43
0.0
10
-269.22500000000002
20
3.0249999999999999
42
-0.41421356237304624
10
-269.72500000000002
20
2.5249999999999999
10
-282.72500000000002
20
2.5249999999999995
42
-0.41421356237313273
10
-283.22500000000002
20
3.0249999999999999
10
-283.22500000000008
20
16.024999999999999
42
-0.41421356237307683
10
-282.72500000000002
20
16.524999999999999
10
-269.72500000000002
20
16.524999999999984
42
-0.41421356237312362
10
-269.22500000000002
20
16.024999999999999
0
LWPOLYLINE
5
114
100
AcDbEntity
8
0
100
AcDbPolyline
90
8
70
1
43
0.0
10
-14.431250000000013
20
83.987499999999997
42
-0.41421356237311452
10
-14.93125
20
83.487500000000011
10
-27.931249999999999
20
83.487499999999983
42
-0.41421356237309243
10
-28.431250000000002
20
83.987499999999997
10
-28.431250000000002
20
96.987500000000011
42
-0.41421356237309243
10
-27.931249999999999
20
97.487500000000011
10
-14.931249999999991
20
97.487500000000026
42
-0.41421356237309892
10
-14.431250000000002
20
96.987500000000011
0
LWPOLYLINE
5
115
100
AcDbEntity
8
0
100
AcDbPolyline
90
8
70
1
43
0.0
10
-226.36250000000004
20
103.03750000000001
42
-0.41421356237310542
10
-226.86250000000001
20
102.53749999999999
10
-239.86250000000001
20
102.53749999999999
42
-0.41421356237313667
10
-240.36250000000001
20
103.03750000000001
10
-240.36250000000001
20
116.03749999999999
42
-0.41421356237309503
10
-239.86250000000001
20
116.53750000000001
10
-226.86250000000001
20
116.53749999999999
42
-0.4142135623730846
10
-226.36250000000001
20
116.03749999999999
0
LWPOLYLINE
5
116
100
AcDbEntity
8
0
100
AcDbPolyline
90
8
70
1
43
0.0
10
-245.41250000000002
20
3.0249999999999999
42
-0.41421356237304624
10
-245.91250000000002
20
2.5249999999999999
10
-258.91250000000002
20
2.5249999999999995
42
-0.41421356237313273
10
-259.41250000000002
20
3.0249999999999999
10
-259.41250000000008
20
16.024999999999999
42
-0.4142135623730781
10
-258.91250000000002
20
16.525000000000002
10
-245.91250000000002
20
16.524999999999984
42
-0.41421356237312362
10
-245.41250000000002
20
16.024999999999999
0
LWPOLYLINE
5
117
100
AcDbEntity
8
0
100
AcDbPolyline
90
8
70
1
43
0.0
10
-297.79999999999995
20
26.837499999999999
42
-0.41421356237307683
10
-298.30000000000001
20
26.337499999999999
10
-311.30000000000001
20
26.337499999999984
42
-0.41421356237310025
10
-311.80000000000001
20
26.837499999999999
10
-311.80000000000001
20
39.837499999999999
42
-0.41421356237312623
10
-311.30000000000001
20
40.337500000000006
10
-298.30000000000001
20
40.337500000000034
42
-0.41421356237311063
10
-297.80000000000001
20
39.837499999999999
0
LWPOLYLINE
5
118
100
AcDbEntity
8
0
100
AcDbPolyline
90
8
70
1
43
0.0
10
-126.35000000000002
20
45.887500000000003
42
-0.41421356237310025
10
-126.85000000000001
20
45.387500000000003
10
-139.84999999999999
20
45.387499999999996
42
-0.41421356237309503
10
-140.34999999999999
20
45.887500000000003
10
-140.34999999999999
20
58.88750000000001
42
-0.41421356237308982
10
-139.84999999999999
20
59.387500000000003
10
-126.85000000000002
20
59.387500000000017
42
-0.4142135623730846
10
-126.34999999999999
20
58.88750000000001
0
LWPOLYLINE
5
119
100
AcDbEntity
8
0
100
AcDbPolyline
90
8
70
1
43
0.0
10
-197.78750000000002
20
103.03750000000001
42
-0.41421356237310542
10
-198.28749999999999
20
102.53749999999999
10
-211.28749999999999
20
102.53749999999999
42
-0.41421356237313667
10
-211.78750000000002
20
103.03750000000001
10
-211.78750000000002
20
116.03749999999999
42
-0.41421356237309503
10
-211.28749999999999
20
116.53750000000001
10
-198.28749999999999
20
116.53749999999997
42
-0.41421356237309503
10
-197.78750000000002
20
116.03749999999999
0
LWPOLYLINE
5
120
100
AcDbEntity
8
0
100
AcDbPolyline
90
8
70
1
43
0.0
10
-164.44999999999996
20
45.887500000000003
42
-0.41421356237307422
10
-164.95000000000002
20
45.387500000000003
10
-177.94999999999999
20
45.387500000000003
42
-0.41421356237313145
10
-178.44999999999999
20
45.887500000000003
10
-178.45000000000002
20
58.88750000000001
42
-0.41421356237307422
10
-177.94999999999999
20
59.387500000000003
10
-164.95000000000002
20
59.387500000000003
42
-0.41421356237313145
10
-164.44999999999999
20
58.88750000000001
0
LWPOLYLINE
5
121
100
AcDbEntity
8
0
100
AcDbPolyline
90
8
70
1
43
0.0
10
-7.2875000000000023
20
45.887500000000003
42
-0.41421356237309503
10
-7.7875000000000005
20
45.387500000000003
10
-20.787499999999994
20
45.387500000000003
42
-0.41421356237310025
10
-21.287500000000001
20
45.887500000000003
10
-21.287500000000001
20
58.88750000000001
42
-0.41421356237309503
10
-20.787500000000001
20
59.387500000000003
10
-7.7874999999999872
20
59.387500000000003
42
-0.41421356237308593
10
-7.2874999999999996
20
58.88750000000001
0
LWPOLYLINE
5
122
100
AcDbEntity
8
0
100
AcDbPolyline
90
8
70
1
43
0.0
10
-102.53749999999999
20
83.987499999999997
42
-0.41421356237309503
10
-103.03750000000001
20
83.487499999999983
10
-116.03749999999998
20
83.487499999999983
42
-0.4142135623730846
10
-116.53750000000001
20
83.987499999999997
10
-116.53750000000001
20
96.987500000000011
42
-0.41421356237307422
10
-116.03749999999999
20
97.487500000000011
10
-103.03750000000001
20
97.487500000000011
42
-0.41421356237309503
10
-102.53749999999999
20
96.987500000000011
0
LWPOLYLINE
5
123
100
AcDbEntity
8
0
100
AcDbPolyline
90
8
70
1
43
0.0
10
-64.437499999999986
20
83.987499999999997
42
-0.41421356237310025
10
-64.9375
20
83.487499999999983
10
-77.9375
20
83.487499999999983
42
-0.41421356237309503
10
-78.4375
20
83.987499999999997
10
-78.437500000000014
20
96.987500000000011
42
-0.41421356237309503
10
-77.9375
20
97.487500000000011
10
-64.937499999999986
20
97.487500000000011
42
-0.41421356237309503
10
-64.4375
20
96.987500000000011
0
LWPOLYLINE
5
124
100
AcDbEntity
8
0
100
AcDbPolyline
90
8
70
1
43
0.0
10
-193.02499999999998
20
26.837499999999999
42
-0.41421356237307683
10
-193.52500000000003
20
26.337499999999999
10
-206.52500000000003
20
26.337500000000023
42
-0.41421356237309764
10
-207.02500000000001
20
26.837499999999999
10
-207.02500000000003
20
39.837499999999999
42
-0.41421356237312623
10
-206.52500000000003
20
40.337500000000006
10
-193.52500000000003
20
40.337500000000034
42
-0.41421356237311063
10
-193.02500000000003
20
39.837499999999999
0
LWPOLYLINE
5
125
100
AcDbEntity
8
0
100
AcDbPolyline
90
8
70
1
43
0.0
10
-197.78750000000002
20
83.987499999999997
42
-0.41421356237310542
10
-198.28749999999999
20
83.487499999999983
10
-211.28749999999999
20
83.487499999999983
42
-0.41421356237313667
10
-211.78750000000002
20
83.987499999999997
10
-211.78750000000002
20
96.987500000000011
42
-0.41421356237313667
10
-211.28749999999999
20
97.487500000000011
10
-198.28749999999999
20
97.487499999999983
42
-0.41421356237309503
10
-197.78750000000002
20
96.987500000000011
0
LWPOLYLINE
5
126
100
AcDbEntity
8
0
100
AcDbPolyline
90
8
70
1
43
0.0
10
-54.912500000000009
20
64.9375
42
-0.41421356237309503
10
-55.412500000000009
20
64.4375
10
-68.412499999999994
20
64.4375
42
-0.41421356237310025
10
-68.912499999999994
20
64.9375
10
-68.912499999999994
20
77.9375
42
-0.41421356237309503
10
-68.412499999999994
20
78.4375
10
-55.412500000000016
20
78.4375
42
-0.41421356237310025
10
-54.912500000000009
20
77.9375
0
LWPOLYLINE
5
127
100
AcDbEntity
8
0
100
AcDbPolyline
90
8
70
1
43
0.0
10
-159.68750000000003
20
83.987499999999997
42
-0.41421356237313667
10
-160.1875
20
83.487500000000011
10
-173.1875
20
83.487499999999969
42
-0.41421356237310542
10
-173.68750000000003
20
83.987499999999997
10
-173.6875
20
96.987500000000011
42
-0.41421356237310542
10
-173.1875
20
97.487500000000011
10
-160.1875
20
97.487500000000011
42
-0.41421356237309503
10
-159.6875
20
96.987500000000011
0
LWPOLYLINE
5
128
100
AcDbEntity
8
0
100
AcDbPolyline
90
8
70
1
43
0.0
10
-182.71250000000003
20
64.437500000000014
42
-0.41421356237312623
10
-183.21250000000003
20
64.9375
10
-183.21249999999998
20
77.9375
42
-0.4142135623730222
10
-182.71250000000003
20
78.4375
10
-169.71250000000001
20
78.4375
42
-0.41421356237313145
10
-169.21250000000001
20
77.9375
10
-169.21249999999998
20
64.9375
42
-0.41421356237307422
10
-169.71250000000001
20
64.4375
0
LWPOLYLINE
5
129
100
AcDbEntity
8
0
100
AcDbPolyline
90
8
70
1
43
0.0
10
-45.387499999999996
20
83.987499999999997
42
-0.41421356237309503
10
-45.887500000000003
20
83.487499999999983
10
-58.887500000000017
20
83.487499999999983
42
-0.4142135623730846
10
-59.387500000000003
20
83.987499999999997
10
-59.387500000000017
20
96.987500000000011
42
-0.41421356237309503
10
-58.88750000000001
20
97.487500000000011
10
-45.88750000000001
20
97.487500000000011
42
-0.41421356237309503
10
-45.387500000000003
20
96.987500000000011
0
LWPOLYLINE
5
130
100
AcDbEntity
8
0
100
AcDbPolyline
90
8
70
1
43
0.0
10
-311.30000000000001
20
45.387500000000017
42
-0.41421356237312101
10
-311.80000000000001
20
45.887500000000003
10
-311.80000000000001
20
58.88750000000001
42
-0.4142135623730222
10
-311.30000000000001
20
59.387500000000003
10
-298.30000000000001
20
59.387500000000003
42
-0.41421356237313145
10
-297.80000000000001
20
58.88750000000001
10
-297.79999999999995
20
45.887500000000003
42
-0.41421356237307422
10
-298.30000000000001
20
45.387500000000003
0
LWPOLYLINE
5
131
100
AcDbEntity
8
0
100
AcDbPolyline
90
8
70
1
43
0.0
10
-121.58750000000003
20
83.987499999999997
42
-0.41421356237313667
10
-122.08750000000002
20
83.487500000000011
10
-135.08749999999998
20
83.487499999999983
42
-0.4142135623730846
10
-135.58750000000001
20
83.987499999999997
10
-135.58750000000001
20
96.987500000000011
42
-0.41421356237307422
10
-135.08750000000001
20
97.487500000000011
10
-122.08750000000002
20
97.487500000000011
42
-0.41421356237309503
10
-121.58750000000001
20
96.987500000000011
0
LWPOLYLINE
5
132
100
AcDbEntity
8
0
100
AcDbPolyline
90
8
70
1
43
0.0
10
-40.625
20
26.837499999999999
42
-0.41421356237309503
10
-41.125
20
26.337499999999999
10
-54.125000000000014
20
26.337499999999999
42
-0.41421356237308982
10
-54.625
20
26.837499999999999
10
-54.625
20
39.837499999999999
42
-0.41421356237310542
10
-54.125000000000007
20
40.337500000000006
10
-41.125000000000007
20
40.337499999999991
42
-0.41421356237311846
10
-40.625
20
39.837499999999999
0
LWPOLYLINE
5
133
100
AcDbEntity
8
0
100
AcDbPolyline
90
8
70
1
43
0.0
10
-239.86250000000001
20
64.4375
42
-0.41421356237313667
10
-240.36250000000001
20
64.9375
10
-240.36250000000007
20
77.9375
42
-0.41421356237307422
10
-239.86250000000001
20
78.4375
10
-226.86250000000001
20
78.437499999999986
42
-0.41421356237312101
10
-226.36250000000001
20
77.9375
10
-226.36250000000004
20
64.9375
42
-0.4142135623730222
10
-226.86250000000001
20
64.4375
0
LWPOLYLINE
5
134
100
AcDbEntity
8
0
100
AcDbPolyline
90
8
70
1
43
0.0
10
-216.05000000000004
20
45.387500000000017
42
-0.41421356237312101
10
-216.55000000000004
20
45.887500000000003
10
-216.55000000000001
20
58.88750000000001
42
-0.4142135623730222
10
-216.05000000000004
20
59.387500000000003
10
-203.05000000000004
20
59.387500000000003
42
-0.41421356237313145
10
-202.55000000000001
20
58.88750000000001
10
-202.54999999999998
20
45.887500000000003
42
-0.41421356237307422
10
-203.05000000000004
20
45.387500000000003
0
LWPOLYLINE
5
135
100
AcDbEntity
8
0
100
AcDbPolyline
90
8
70
1
43
0.0
10
-243.03125
20
83.987499999999997
42
-0.4142135623730846
10
-243.53125000000003
20
83.487500000000011
10
-256.53125
20
83.487500000000026
42
-0.41421356237309503
10
-257.03125
20
83.987499999999997
10
-257.03125
20
96.987500000000011
42
-0.41421356237310542
10
-256.53125
20
97.487500000000011
10
-243.53125000000003
20
97.487500000000011
42
-0.41421356237313667
10
-243.03125
20
96.987500000000011
0
LWPOLYLINE
5
136
100
AcDbEntity
8
0
100
AcDbPolyline
90
8
70
1
43
0.0
10
-45.387500000000003
20
3.0249999999999999
42
-0.41421356237309404
10
-45.887500000000003
20
2.5249999999999999
10
-58.887500000000017
20
2.525000000000003
42
-0.41421356237308915
10
-59.387500000000003
20
3.0249999999999999
10
-59.387500000000003
20
16.024999999999999
42
-0.41421356237309503
10
-58.88750000000001
20
16.524999999999999
10
-45.88750000000001
20
16.524999999999999
42
-0.41421356237310025
10
-45.387500000000003
20
16.024999999999999
0
LWPOLYLINE
5
137
100
AcDbEntity
8
0
100
AcDbPolyline
90
8
70
1
43
0.0
10
-231.125
20
26.837499999999999
42
-0.41421356237304563
10
-231.625
20
26.337499999999999
10
-244.62500000000003
20
26.337499999999999
42
-0.41421356237313145
10
-245.12500000000003
20
26.837499999999999
10
-245.12500000000003
20
39.837499999999999
42
-0.41421356237313667
10
-244.62500000000003
20
40.337500000000006
10
-231.625
20
40.337500000000013
42
-0.41421356237310025
10
-231.125
20
39.837499999999999
0
LWPOLYLINE
5
138
100
AcDbEntity
8
0
100
AcDbPolyline
90
8
70
1
43
0.0
10
-31.100000000000001
20
45.887500000000003
42
-0.41421356237309503
10
-31.600000000000001
20
45.387500000000003
10
-44.600000000000009
20
45.387500000000003
42
-0.41421356237308982
10
-45.099999999999994
20
45.887500000000003
10
-45.099999999999994
20
58.88750000000001
42
-0.41421356237309503
10
-44.600000000000001
20
59.387500000000003
10
-31.600000000000001
20
59.387500000000003
42
-0.41421356237309503
10
-31.100000000000001
20
58.88750000000001
0
LWPOLYLINE
5
139
100
AcDbEntity
8
0
100
AcDbPolyline
90
8
70
1
43
0.0
10
-135.87500000000003
20
26.837499999999999
42
-0.41421356237310025
10
-136.375
20
26.337499999999999
10
-149.375
20
26.337499999999995
42
-0.41421356237309243
10
-149.875
20
26.837499999999999
10
-149.875
20
39.837499999999999
42
-0.41421356237310802
10
-149.375
20
40.337500000000006
10
-136.37500000000003
20
40.33750000000002
42
-0.41421356237307161
10
-135.875
20
39.837499999999999
0
LWPOLYLINE
5
140
100
AcDbEntity
8
0
100
AcDbPolyline
90
8
70
1
43
0.0
10
-183.49999999999997
20
45.887500000000003
42
-0.41421356237307422
10
-184.00000000000003
20
45.387500000000003
10
-197.00000000000003
20
45.387500000000017
42
-0.41421356237310025
10
-197.5
20
45.887500000000003
10
-197.5
20
58.88750000000001
42
-0.4142135623730222
10
-197.00000000000003
20
59.387500000000003
10
-184.00000000000003
20
59.387500000000003
42
-0.41421356237313145
10
-183.5
20
58.88750000000001
0
LWPOLYLINE
5
141
100
AcDbEntity
8
0
100
AcDbPolyline
90
8
70
1
43
0.0
10
-35.862499999999997
20
64.9375
10
-35.862499999999997
20
77.9375
42
0.41421356237309764
10
-36.362500000000004
20
78.4375
10
-49.362500000000004
20
78.4375
42
0.41421356237309503
10
-49.862499999999983
20
77.9375
10
-49.862499999999997
20
64.9375
42
0.41421356237308982
10
-49.362500000000011
20
64.4375
10
-36.362499999999997
20
64.4375
42
0.41421356237309764
0
LWPOLYLINE
5
142
100
AcDbEntity
8
0
100
AcDbPolyline
90
8
70
1
43
0.0
10
-164.44999999999996
20
3.0249999999999999
42
-0.41421356237307749
10
-164.95000000000002
20
2.5249999999999999
10
-177.94999999999999
20
2.5249999999999995
42
-0.41421356237313273
10
-178.44999999999999
20
3.0249999999999999
10
-178.45000000000002
20
16.024999999999999
42
-0.4142135623730781
10
-177.94999999999999
20
16.525000000000002
10
-164.95000000000002
20
16.525000000000002
42
-0.41421356237313406
10
-164.44999999999999
20
16.024999999999999
0
LWPOLYLINE
5
143
100
AcDbEntity
8
0
100
AcDbPolyline
90
8
70
1
43
0.0
10
-188.26250000000002
20
64.9375
42
-0.4142135623730222
10
-188.76249999999999
20
64.4375
10
-201.76249999999999
20
64.4375
42
-0.41421356237313667
10
-202.26249999999999
20
64.9375
10
-202.26250000000005
20
77.9375
42
-0.41421356237307422
10
-201.76249999999999
20
78.4375
10
-188.76249999999999
20
78.437499999999986
42
-0.41421356237312101
10
-188.26249999999999
20
77.9375
0
LWPOLYLINE
5
144
100
AcDbEntity
8
0
100
AcDbPolyline
90
8
70
1
43
0.0
10
-173.97499999999997
20
26.837499999999999
42
-0.41421356237307683
10
-174.47500000000002
20
26.337499999999999
10
-187.47499999999999
20
26.337499999999999
42
-0.41421356237313145
10
-187.97499999999999
20
26.837499999999999
10
-187.97499999999999
20
39.837499999999999
42
-0.41421356237313667
10
-187.47499999999999
20
40.337500000000006
10
-174.47500000000002
20
40.337500000000034
42
-0.41421356237311063
10
-173.97500000000002
20
39.837499999999999
0
LWPOLYLINE
5
145
100
AcDbEntity
8
0
100
AcDbPolyline
90
8
70
1
43
0.0
10
-264.46249999999998
20
45.887500000000003
42
-0.41421356237307422
10
-264.96249999999998
20
45.387500000000003
10
-277.96249999999998
20
45.387500000000017
42
-0.41421356237312101
10
-278.46250000000003
20
45.887500000000003
10
-278.46249999999998
20
58.88750000000001
42
-0.4142135623730222
10
-277.96249999999998
20
59.387500000000003
10
-264.96249999999998
20
59.387500000000003
42
-0.41421356237313145
10
-264.46249999999998
20
58.88750000000001
0
LWPOLYLINE
5
146
100
AcDbEntity
8
0
100
AcDbPolyline
90
8
70
1
43
0.0
10
-2.5250000000000004
20
26.837499999999999
42
-0.4142135623730957
10
-3.0249999999999999
20
26.337499999999999
10
-16.024999999999991
20
26.337499999999999
42
-0.41421356237310025
10
-16.525000000000002
20
26.837499999999999
10
-16.525000000000002
20
39.837499999999999
42
-0.41421356237310025
10
-16.024999999999999
20
40.337500000000006
10
-3.0249999999999844
20
40.337500000000006
42
-0.41421356237307094
10
-2.5249999999999999
20
39.837499999999999
0
LWPOLYLINE
5
147
100
AcDbEntity
8
0
100
AcDbPolyline
90
8
70
1
43
0.0
10
-216.83750000000003
20
83.987499999999997
42
-0.41421356237307422
10
-217.33750000000001
20
83.487500000000011
10
-230.33750000000001
20
83.487499999999983
42
-0.41421356237313667
10
-230.83750000000003
20
83.987499999999997
10
-230.83750000000003
20
96.987500000000011
42
-0.41421356237313667
10
-230.33750000000001
20
97.487500000000011
10
-217.33750000000001
20
97.487500000000026
42
-0.41421356237310542
10
-216.83750000000001
20
96.987500000000011
0
LWPOLYLINE
5
148
100
AcDbEntity
8
0
100
AcDbPolyline
90
8
70
1
43
0.0
10
-188.26249999999999
20
3.0249999999999999
42
-0.41421356237304624
10
-188.76249999999999
20
2.5249999999999999
10
-201.76249999999999
20
2.5249999999999995
42
-0.41421356237313273
10
-202.26249999999999
20
3.0249999999999999
10
-202.26250000000005
20
16.024999999999999
42
-0.4142135623730781
10
-201.76249999999999
20
16.525000000000002
10
-188.76249999999999
20
16.524999999999984
42
-0.41421356237312362
10
-188.26249999999999
20
16.024999999999999
0
LWPOLYLINE
5
149
100
AcDbEntity
8
0
100
AcDbPolyline
90
8
70
1
43
0.0
10
-273.98750000000007
20
88.75
42
-0.41421356237310542
10
-274.48750000000007
20
88.25
10
-287.48750000000001
20
88.249999999999972
42
-0.41421356237310542
10
-287.98750000000001
20
88.75
10
-287.98749999999995
20
101.75
42
-0.41421356237310542
10
-287.48750000000001
20
102.25000000000001
10
-274.48750000000007
20
102.25000000000003
42
-0.41421356237310542
10
-273.98750000000001
20
101.75
0
LWPOLYLINE
5
150
100
AcDbEntity
8
0
100
AcDbPolyline
90
8
70
1
43
0.0
10
-93.012499999999989
20
64.9375
42
-0.41421356237310542
10
-93.512500000000003
20
64.4375
10
-106.51250000000002
20
64.437499999999986
42
-0.41421356237310025
10
-107.01250000000002
20
64.9375
10
-107.01250000000002
20
77.9375
42
-0.41421356237308982
10
-106.51250000000002
20
78.4375
10
-93.512500000000003
20
78.437499999999986
42
-0.41421356237311585
10
-93.012500000000017
20
77.9375
0
LWPOLYLINE
5
151
100
AcDbEntity
8
0
100
AcDbPolyline
90
8
70
1
43
0.0
10
-50.150000000000006
20
45.887500000000003
10
-50.150000000000006
20
58.88750000000001
42
0.41421356237310025
10
-50.650000000000013
20
59.387500000000003
10
-63.650000000000006
20
59.387500000000003
42
0.41421356237309503
10
-64.149999999999991
20
58.88750000000001
10
-64.150000000000006
20
45.887500000000003
42
0.41421356237310025
10
-63.65000000000002
20
45.387500000000003
10
-50.650000000000006
20
45.387500000000003
42
0.41421356237309503
0
LWPOLYLINE
5
152
100
AcDbEntity
8
0
100
AcDbPolyline
90
8
70
1
43
0.0
10
-212.07499999999999
20
26.837499999999999
42
-0.41421356237304563
10
-212.57499999999999
20
26.337499999999999
10
-225.57500000000002
20
26.337499999999999
42
-0.41421356237313145
10
-226.07500000000002
20
26.837499999999999
10
-226.07500000000002
20
39.837499999999999
42
-0.41421356237313667
10
-225.57500000000002
20
40.337500000000006
10
-212.57499999999999
20
40.337500000000013
42
-0.41421356237310025
10
-212.07499999999999
20
39.837499999999999
0
LWPOLYLINE
5
153
100
AcDbEntity
8
0
100
AcDbPolyline
90
8
70
1
43
0.0
10
-207.31250000000003
20
64.9375
42
-0.4142135623730222
10
-207.8125
20
64.4375
10
-220.8125
20
64.4375
42
-0.41421356237313667
10
-221.3125
20
64.9375
10
-221.31250000000006
20
77.9375
42
-0.41421356237307422
10
-220.8125
20
78.4375
10
-207.8125
20
78.437499999999986
42
-0.41421356237310025
10
-207.31250000000003
20
77.9375
0
LWPOLYLINE
5
154
100
AcDbEntity
8
0
100
AcDbPolyline
90
8
70
1
43
0.0
10
-287.48750000000001
20
107.29999999999998
42
-0.41421356237310542
10
-287.98750000000001
20
107.80000000000001
10
-287.98750000000007
20
120.8
42
-0.4142135623730846
10
-287.48750000000001
20
121.30000000000001
10
-274.48750000000007
20
121.29999999999998
42
-0.4142135623730846
10
-273.98750000000001
20
120.8
10
-273.98750000000007
20
107.80000000000001
42
-0.41421356237310542
10
-274.48750000000007
20
107.30000000000001
0
LWPOLYLINE
5
155
100
AcDbEntity
8
0
100
AcDbPolyline
90
8
70
1
43
0.0
10
-83.487500000000026
20
83.987499999999997
10
-83.487499999999983
20
96.987500000000011
42
0.41421356237309503
10
-83.987499999999997
20
97.487500000000011
10
-96.987500000000011
20
97.487500000000011
42
0.41421356237309503
10
-97.487500000000011
20
96.987500000000011
10
-97.487500000000011
20
83.987499999999997
42
0.41421356237309503
10
-96.987500000000011
20
83.487499999999983
10
-83.987499999999997
20
83.487500000000011
42
0.41421356237313667
0
LWPOLYLINE
5
156
100
AcDbEntity
8
0
100
AcDbPolyline
90
8
70
1
43
0.0
10
-59.675000000000011
20
26.837499999999999
42
-0.41421356237309764
10
-60.174999999999997
20
26.337499999999999
10
-73.174999999999983
20
26.337499999999999
42
-0.41421356237310025
10
-73.674999999999997
20
26.837499999999999
10
-73.674999999999997
20
39.837499999999999
42
-0.41421356237310542
10
-73.174999999999997
20
40.337500000000006
10
-60.174999999999983
20
40.337499999999991
42
-0.41421356237310542
10
-59.675000000000004
20
39.837499999999999
0
LWPOLYLINE
5
157
100
AcDbEntity
8
0
100
AcDbPolyline
90
8
70
1
43
0.0
10
-4.9062500000000009
20
64.9375
42
-0.4142135623730957
10
-5.4062499999999991
20
64.4375
10
-23.168749999999996
20
64.437500000000014
42
-0.41421356237310025
10
-23.668749999999999
20
64.9375
10
-23.668749999999999
20
77.9375
42
-0.41421356237309503
10
-23.168749999999999
20
78.4375
10
-5.4062499999999858
20
78.4375
42
-0.41421356237308593
10
-4.90625
20
77.9375
0
LWPOLYLINE
5
158
100
AcDbEntity
8
0
100
AcDbPolyline
90
8
70
1
43
0.0
10
-154.13749999999999
20
83.487500000000011
42
-0.41421356237313667
10
-154.63749999999999
20
83.987499999999997
10
-154.63750000000002
20
96.987500000000011
42
-0.41421356237309503
10
-154.13749999999999
20
97.487500000000011
10
-141.13749999999999
20
97.487500000000011
42
-0.41421356237309503
10
-140.63749999999999
20
96.987500000000011
10
-140.63750000000002
20
83.987499999999997
42
-0.41421356237313667
10
-141.13749999999999
20
83.487500000000011
0
LWPOLYLINE
5
159
100
AcDbEntity
8
0
100
AcDbPolyline
90
8
70
1
43
0.0
10
-293.03750000000008
20
107.80000000000001
42
-0.41421356237310542
10
-293.53750000000002
20
107.30000000000001
10
-306.53750000000002
20
107.29999999999998
42
-0.41421356237310542
10
-307.03750000000002
20
107.80000000000001
10
-307.03750000000008
20
120.8
42
-0.4142135623730846
10
-306.53750000000002
20
121.30000000000001
10
-293.53750000000002
20
121.29999999999998
42
-0.4142135623730846
10
-293.03750000000002
20
120.8
0
LWPOLYLINE
5
160
100
AcDbEntity
8
0
100
AcDbPolyline
90
8
70
1
43
0.0
10
-178.73750000000001
20
83.987499999999997
42
-0.4142135623730846
10
-179.23750000000001
20
83.487500000000011
10
-192.23750000000001
20
83.487499999999969
42
-0.41421356237310542
10
-192.73750000000004
20
83.987499999999997
10
-192.73750000000001
20
96.987500000000011
42
-0.41421356237310542
10
-192.23750000000001
20
97.487500000000011
10
-179.23750000000001
20
97.487500000000011
42
-0.41421356237313667
10
-178.73750000000001
20
96.987500000000011
0
LWPOLYLINE
5
161
100
AcDbEntity
8
0
100
AcDbPolyline
90
8
70
1
43
0.0
10
-131.11250000000001
20
64.9375
42
-0.41421356237310542
10
-131.61250000000001
20
64.4375
10
-144.61250000000001
20
64.437499999999986
42
-0.41421356237308982
10
-145.11250000000001
20
64.9375
10
-145.11250000000001
20
77.9375
42
-0.41421356237310025
10
-144.61250000000001
20
78.4375
10
-131.61250000000001
20
78.437500000000014
42
-0.41421356237309503
10
-131.11250000000001
20
77.9375
0
LWPOLYLINE
5
162
100
AcDbEntity
8
0
100
AcDbPolyline
90
8
70
1
43
0.0
10
-64.4375
20
3.0249999999999999
42
-0.41421356237309664
10
-64.9375
20
2.5249999999999999
10
-77.9375
20
2.525000000000003
42
-0.41421356237309959
10
-78.4375
20
3.0249999999999999
10
-78.4375
20
16.024999999999999
42
-0.4142135623730937
10
-77.9375
20
16.525000000000002
10
-64.937499999999986
20
16.525000000000002
42
-0.41421356237308721
10
-64.4375
20
16.024999999999999
0
LWPOLYLINE
5
163
100
AcDbEntity
8
0
100
AcDbPolyline
90
8
70
1
43
0.0
10
-207.3125
20
3.0249999999999999
42
-0.41421356237304624
10
-207.8125
20
2.5249999999999999
10
-220.8125
20
2.5249999999999995
42
-0.41421356237313273
10
-221.3125
20
3.0249999999999999
10
-221.31250000000006
20
16.024999999999999
42
-0.41421356237307683
10
-220.8125
20
16.524999999999999
10
-207.8125
20
16.524999999999974
42
-0.41421356237309631
10
-207.31250000000003
20
16.024999999999999
0
LWPOLYLINE
5
164
100
AcDbEntity
8
0
100
AcDbPolyline
90
8
70
1
43
0.0
10
-297.79999999999995
20
64.9375
42
-0.41421356237307422
10
-298.30000000000001
20
64.4375
10
-311.30000000000001
20
64.437500000000014
42
-0.41421356237312623
10
-311.80000000000001
20
64.9375
10
-311.80000000000001
20
77.9375
42
-0.4142135623730222
10
-311.30000000000001
20
78.4375
10
-298.30000000000001
20
78.4375
42
-0.41421356237313145
10
-297.80000000000001
20
77.9375
0
LWPOLYLINE
5
165
100
AcDbEntity
8
0
100
AcDbPolyline
90
8
70
1
43
0.0
10
-2.5249999999999999
20
3.0249999999999999
42
-0.41421356237309437
10
-3.0249999999999999
20
2.5249999999999999
10
-16.024999999999991
20
2.5249999999999986
42
-0.41421356237309825
10
-16.525000000000002
20
3.0249999999999999
10
-16.525000000000002
20
16.024999999999999
42
-0.41421356237309243
10
-16.024999999999999
20
16.525000000000002
10
-3.0249999999999844
20
16.525000000000002
42
-0.4142135623730856
10
-2.5249999999999999
20
16.024999999999999
0
LWPOLYLINE
5
166
100
AcDbEntity
8
0
100
AcDbPolyline
90
8
70
1
43
0.0
10
-21.575000000000003
20
26.837499999999999
42
-0.41421356237309503
10
-22.074999999999999
20
26.337499999999999
10
-35.075000000000003
20
26.337499999999995
42
-0.41421356237310025
10
-35.575000000000003
20
26.837499999999999
10
-35.575000000000003
20
39.837499999999999
42
-0.41421356237310542
10
-35.075000000000003
20
40.337500000000006
10
-22.074999999999996
20
40.337499999999991
42
-0.41421356237311063
10
-21.575000000000003
20
39.837499999999999
0
LWPOLYLINE
5
167
100
AcDbEntity
8
0
100
AcDbPolyline
90
8
70
1
43
0.0
10
-26.337499999999999
20
3.0249999999999999
42
-0.41421356237309537
10
-26.837499999999999
20
2.5249999999999999
10
-39.837500000000006
20
2.5249999999999995
42
-0.41421356237310153
10
-40.337500000000006
20
3.0249999999999999
10
-40.337499999999991
20
16.024999999999999
42
-0.41421356237311197
10
-39.837499999999999
20
16.524999999999999
10
-26.837499999999999
20
16.525000000000002
42
-0.41421356237309631
10
-26.337499999999999
20
16.024999999999999
0
LWPOLYLINE
5
168
100
AcDbEntity
8
0
100
AcDbPolyline
90
8
70
1
43
0.0
10
-254.93750000000006
20
107.80000000000001
42
-0.41421356237310542
10
-255.43750000000003
20
107.30000000000001
10
-268.4375
20
107.29999999999998
42
-0.41421356237310542
10
-268.9375
20
107.80000000000001
10
-268.93750000000006
20
120.8
42
-0.4142135623730846
10
-268.4375
20
121.30000000000001
10
-255.43750000000003
20
121.29999999999998
42
-0.4142135623730846
10
-254.93750000000003
20
120.8
0
LWPOLYLINE
5
169
100
AcDbEntity
8
0
100
AcDbPolyline
90
8
70
1
43
0.0
10
-78.725000000000009
20
26.837499999999999
42
-0.41421356237309764
10
-79.224999999999994
20
26.337499999999999
10
-92.224999999999994
20
26.337500000000013
42
-0.41421356237311324
10
-92.724999999999994
20
26.837499999999999
10
-92.725000000000009
20
39.837499999999999
42
-0.41421356237310802
10
-92.224999999999994
20
40.337500000000006
10
-79.224999999999994
20
40.337499999999991
42
-0.41421356237311585
10
-78.724999999999994
20
39.837499999999999
0
LWPOLYLINE
5
170
100
AcDbEntity
8
0
100
AcDbPolyline
90
8
70
1
43
0.0
10
-235.10000000000002
20
45.387500000000003
42
-0.41421356237313145
10
-235.60000000000002
20
45.887500000000003
10
-235.60000000000005
20
58.88750000000001
42
-0.41421356237307422
10
-235.10000000000002
20
59.387500000000003
10
-222.10000000000002
20
59.387499999999989
42
-0.41421356237312101
10
-221.59999999999999
20
58.88750000000001
10
-221.60000000000002
20
45.887500000000003
42
-0.4142135623730222
10
-222.10000000000002
20
45.387500000000003
0
LWPOLYLINE
5
171
100
AcDbEntity
8
0
100
AcDbPolyline
90
8
70
1
43
0.0
10
-88.25
20
45.887500000000003
42
-0.41421356237308982
10
-88.75
20
45.387500000000003
10
-101.75
20
45.387499999999996
42
-0.41421356237309503
10
-102.25000000000001
20
45.887500000000003
10
-102.25000000000001
20
58.88750000000001
42
-0.41421356237308982
10
-101.75
20
59.387500000000003
10
-88.75
20
59.387499999999996
42
-0.41421356237311585
10
-88.250000000000014
20
58.88750000000001
0
LWPOLYLINE
5
172
100
AcDbEntity
8
0
100
AcDbPolyline
90
8
70
1
43
0.0
10
-120.8
20
45.387499999999996
42
-0.41421356237307422
10
-121.30000000000001
20
45.887500000000003
10
-121.29999999999998
20
58.88750000000001
42
-0.41421356237310025
10
-120.8
20
59.387500000000003
10
-107.80000000000001
20
59.387500000000017
42
-0.41421356237309503
10
-107.30000000000001
20
58.88750000000001
10
-107.30000000000001
20
45.887500000000003
42
-0.41421356237308982
10
-107.80000000000001
20
45.387500000000003
0
LWPOLYLINE
5
173
100
AcDbEntity
8
0
100
AcDbPolyline
90
8
70
1
43
0.0
10
-83.487499999999969
20
3.0249999999999999
42
-0.41421356237310542
10
-83.987499999999997
20
2.5249999999999999
10
-96.987500000000011
20
2.5249999999999941
42
-0.41421356237309437
10
-97.487500000000011
20
3.0249999999999999
10
-97.487500000000026
20
16.024999999999999
42
-0.41421356237310414
10
-96.987500000000011
20
16.524999999999999
10
-83.987499999999997
20
16.525000000000009
42
-0.41421356237309631
10
-83.487499999999983
20
16.024999999999999
0
LWPOLYLINE
5
174
100
AcDbEntity
8
0
100
AcDbPolyline
90
8
70
1
43
0.0
10
-97.775000000000006
20
26.837499999999999
10
-97.775000000000006
20
39.837499999999999
42
0.41421356237309243
10
-98.275000000000006
20
40.337500000000006
10
-111.27500000000001
20
40.337500000000006
42
0.41421356237310802
10
-111.77500000000002
20
39.837499999999999
10
-111.77500000000002
20
26.837499999999999
42
0.41421356237309243
10
-111.27500000000001
20
26.337499999999999
10
-98.275000000000006
20
26.337499999999999
42
0.41421356237310542
0
LWPOLYLINE
5
175
100
AcDbEntity
8
0
100
AcDbPolyline
90
8
70
1
43
0.0
10
-69.200000000000003
20
45.887500000000003
42
-0.41421356237309503
10
-69.700000000000003
20
45.387500000000003
10
-82.700000000000031
20
45.387500000000003
42
-0.41421356237308982
10
-83.200000000000003
20
45.887500000000003
10
-83.200000000000003
20
58.88750000000001
42
-0.41421356237310025
10
-82.700000000000017
20
59.387500000000003
10
-69.699999999999989
20
59.387500000000003
42
-0.4142135623730846
10
-69.200000000000003
20
58.88750000000001
0
LWPOLYLINE
5
176
100
AcDbEntity
8
0
100
AcDbPolyline
90
8
70
1
43
0.0
10
-145.40000000000003
20
45.887500000000003
42
-0.41421356237310025
10
-145.90000000000001
20
45.387500000000003
10
-158.90000000000001
20
45.387499999999996
42
-0.41421356237309503
10
-159.40000000000001
20
45.887500000000003
10
-159.40000000000001
20
58.88750000000001
42
-0.41421356237308982
10
-158.90000000000001
20
59.387500000000003
10
-145.90000000000003
20
59.387500000000017
42
-0.4142135623730846
10
-145.40000000000001
20
58.88750000000001
0
LWPOLYLINE
5
177
100
AcDbEntity
8
0
100
AcDbPolyline
90
8
70
1
43
0.0
10
-154.92500000000001
20
26.837499999999999
10
-154.92500000000001
20
39.837499999999999
42
0.41421356237306123
10
-155.42500000000001
20
40.337500000000006
10
-168.42500000000001
20
40.337500000000006
42
0.41421356237312623
10
-168.92500000000001
20
39.837499999999999
10
-168.92500000000001
20
26.837499999999999
42
0.41421356237310025
10
-168.42500000000001
20
26.337499999999999
10
-155.42500000000001
20
26.337499999999999
42
0.41421356237310025
0
LWPOLYLINE
5
178
100
AcDbEntity
8
0
100
AcDbPolyline
90
8
70
1
43
0.0
10
-107.29999999999998
20
3.0249999999999999
42
-0.41421356237310542
10
-107.80000000000001
20
2.5249999999999999
10
-120.79999999999998
20
2.5249999999999941
42
-0.41421356237308399
10
-121.30000000000001
20
3.0249999999999999
10
-121.29999999999997
20
16.024999999999999
42
-0.41421356237308721
10
-120.8
20
16.524999999999999
10
-107.80000000000001
20
16.525000000000009
42
-0.41421356237309631
10
-107.30000000000001
20
16.024999999999999
0
LWPOLYLINE
5
179
100
AcDbEntity
8
0
100
AcDbPolyline
90
8
70
1
43
0.0
10
-116.82500000000002
20
26.837499999999999
42
-0.41421356237310542
10
-117.32500000000002
20
26.337499999999999
10
-130.32499999999999
20
26.337499999999995
42
-0.41421356237309243
10
-130.82499999999999
20
26.837499999999999
10
-130.82499999999999
20
39.837499999999999
42
-0.41421356237310802
10
-130.32499999999999
20
40.337500000000006
10
-117.32500000000002
20
40.337500000000006
42
-0.41421356237309243
10
-116.82500000000002
20
39.837499999999999
0
LWPOLYLINE
5
180
100
AcDbEntity
8
0
100
AcDbPolyline
90
8
70
1
43
0.0
10
-150.16249999999999
20
64.9375
10
-150.16249999999999
20
77.9375
42
0.41421356237309503
10
-150.66249999999999
20
78.4375
10
-163.66250000000002
20
78.4375
42
0.4142135623730222
10
-164.16250000000002
20
77.9375
10
-164.16250000000002
20
64.9375
42
0.41421356237312623
10
-163.66250000000002
20
64.4375
10
-150.66249999999999
20
64.4375
42
0.41421356237310542
0
LWPOLYLINE
5
181
100
AcDbEntity
8
0
100
AcDbPolyline
90
8
70
1
43
0.0
10
-226.36250000000001
20
3.0249999999999999
42
-0.41421356237304624
10
-226.86250000000001
20
2.5249999999999999
10
-239.86250000000001
20
2.5249999999999995
42
-0.41421356237313273
10
-240.36250000000001
20
3.0249999999999999
10
-240.36250000000007
20
16.024999999999999
42
-0.4142135623730781
10
-239.86250000000001
20
16.525000000000002
10
-226.86250000000001
20
16.524999999999974
42
-0.41421356237309631
10
-226.36250000000004
20
16.024999999999999
0
LWPOLYLINE
5
182
100
AcDbEntity
8
0
100
AcDbPolyline
90
8
70
1
43
0.0
10
-126.34999999999999
20
3.0249999999999999
42
-0.41421356237307422
10
-126.85000000000001
20
2.5249999999999999
10
-139.84999999999999
20
2.5249999999999941
42
-0.41421356237309437
10
-140.34999999999999
20
3.0249999999999999
10
-140.34999999999999
20
16.024999999999999
42
-0.41421356237310675
10
-139.84999999999999
20
16.525000000000002
10
-126.85000000000002
20
16.525000000000009
42
-0.41421356237308593
10
-126.34999999999999
20
16.024999999999999
0
LWPOLYLINE
5
183
100
AcDbEntity
8
0
100
AcDbPolyline
90
8
70
1
43
0.0
10
-158.90000000000001
20
2.5249999999999941
42
-0.41421356237309437
10
-159.40000000000001
20
3.0249999999999999
10
-159.40000000000001
20
16.024999999999999
42
-0.41421356237310675
10
-158.90000000000001
20
16.525000000000002
10
-145.90000000000003
20
16.525000000000009
42
-0.41421356237308593
10
-145.40000000000001
20
16.024999999999999
10
-145.40000000000001
20
3.0249999999999999
42
-0.41421356237307422
10
-145.90000000000001
20
2.5249999999999999
0
LWPOLYLINE
5
184
100
AcDbEntity
8
0
100
AcDbPolyline
90
8
70
1
43
0.0
10
-28.718749999999996
20
103.03750000000001
42
-0.41421356237309243
10
-29.21875
20
102.53749999999999
10
-42.218750000000007
20
102.53749999999999
42
-0.4142135623730846
10
-42.71875
20
103.03750000000001
10
-42.718750000000007
20
116.03749999999999
42
-0.41421356237307422
10
-42.21875
20
116.53750000000001
10
-29.21875
20
116.53749999999999
42
-0.41421356237310025
10
-28.71875
20
116.03749999999999
0
LWPOLYLINE
5
185
100
AcDbEntity
8
0
100
AcDbPolyline
90
8
70
1
43
0.0
10
-52.53125
20
103.03750000000001
42
-0.41421356237309503
10
-53.031250000000007
20
102.53749999999999
10
-66.031249999999986
20
102.53749999999999
42
-0.41421356237308982
10
-66.531250000000014
20
103.03749999999999
10
-66.531250000000014
20
116.03749999999998
42
-0.41421356237307944
10
-66.03125
20
116.53750000000001
10
-53.031250000000014
20
116.53749999999999
42
-0.41421356237310542
10
-52.531250000000007
20
116.03749999999999
0
LWPOLYLINE
5
186
100
AcDbEntity
8
0
100
AcDbPolyline
90
8
70
1
43
0.0
10
-84.71875
20
115.03749999999999
42
-0.41421356237309503
10
-83.96875
20
115.78750000000001
10
-77.96875
20
115.78749999999999
42
-0.41421356237309853
10
-77.21875
20
115.03749999999999
10
-77.218750000000014
20
101.03750000000002
42
-0.41421356237309159
10
-77.96875
20
100.28750000000001
10
-83.968750000000014
20
100.28749999999999
42
-0.41421356237310197
10
-84.71875
20
101.03749999999999
0
LWPOLYLINE
5
187
100
AcDbEntity
8
0
100
AcDbPolyline
90
8
70
1
43
0.0
10
-137.46875
20
102.53749999999999
42
-0.41421356237307422
10
-137.96875000000003
20
103.03750000000001
10
-137.96875000000003
20
116.03749999999999
42
-0.4142135623730534
10
-137.46875
20
116.53750000000001
10
-124.46874999999999
20
116.53750000000001
42
-0.41421356237304302
10
-123.96875
20
116.03749999999999
10
-123.96875
20
103.03750000000001
42
-0.41421356237307422
10
-124.46875
20
102.53749999999999
0
LWPOLYLINE
5
188
100
AcDbEntity
8
0
100
AcDbPolyline
90
8
70
1
43
0.0
10
-184.71875000000006
20
115.03749999999999
42
-0.4142135623730534
10
-183.96875
20
115.78750000000001
10
-177.96875
20
115.78749999999999
42
-0.41421356237309503
10
-177.21875
20
115.03749999999999
10
-177.21874999999997
20
101.03749999999999
42
-0.41421356237306034
10
-177.96875
20
100.28749999999999
10
-183.96875
20
100.28750000000001
42
-0.41421356237309503
10
-184.71875
20
101.03749999999999
0
LWPOLYLINE
5
189
100
AcDbEntity
8
0
100
AcDbPolyline
90
8
70
1
43
0.0
10
-248.63075000000003
20
65.9375
42
-0.41421356237307422
10
-249.38075000000001
20
65.1875
10
-255.38074999999998
20
65.187500000000028
42
-0.41421356237308815
10
-256.13075000000003
20
65.9375
10
-256.13075000000003
20
79.9375
42
-0.41421356237313323
10
-255.38075000000003
20
80.687500000000014
10
-249.38075000000001
20
80.687500000000014
42
-0.41421356237307078
10
-248.63075000000003
20
79.9375
0
LWPOLYLINE
5
190
100
AcDbEntity
8
0
100
AcDbPolyline
90
8
70
1
43
0.0
10
-272.50675000000007
20
65.9375
42
-0.41421356237309503
10
-273.25675000000001
20
65.1875
10
-279.25675000000001
20
65.187500000000028
42
-0.41421356237308815
10
-280.00675000000001
20
65.9375
10
-280.00675000000001
20
79.9375
42
-0.41421356237313323
10
-279.25675000000001
20
80.687500000000014
10
-273.25675000000001
20
80.687499999999972
42
-0.41421356237309159
10
-272.50675000000007
20
79.9375
0
LWPOLYLINE
5
191
100
AcDbEntity
8
0
100
AcDbPolyline
90
8
70
1
43
0.0
10
-4.9062499999999787
20
103.03750000000001
10
-4.9062500000000142
20
116.03749999999999
42
0.41421356237306578
10
-5.4062499999999858
20
116.53750000000001
10
-18.40625
20
116.53750000000001
42
0.41421356237307555
10
-18.90625
20
116.03749999999999
10
-18.90625
20
103.03750000000001
42
0.41421356237310936
10
-18.406249999999993
20
102.53749999999999
10
-5.40625
20
102.53749999999999
42
0.41421356237309437
0
LWPOLYLINE
5
192
100
AcDbEntity
8
0
100
AcDbPolyline
90
8
70
1
43
0.0
10
-22.787500000000001
20
45.887500000000003
42
-0.41421356237309503
10
-23.287499999999998
20
45.387500000000003
10
-25.549999999999997
20
45.387500000000003
42
-0.41421356237310025
10
-26.050000000000004
20
45.887500000000003
10
-26.050000000000004
20
58.88750000000001
42
-0.41421356237309503
10
-25.550000000000004
20
59.387500000000003
10
-23.287499999999994
20
59.387500000000003
42
-0.41421356237309243
10
-22.787500000000001
20
58.88750000000001
0
LWPOLYLINE
5
193
100
AcDbEntity
8
0
100
AcDbPolyline
90
8
70
1
43
0.0
10
-2.525000000000003
20
45.887500000000003
42
-0.41421356237309437
10
-3.0249999999999999
20
45.387500000000003
10
-5.2874999999999872
20
45.387500000000003
42
-0.41421356237310153
10
-5.7874999999999996
20
45.887500000000003
10
-5.7874999999999979
20
58.88750000000001
42
-0.4142135623730937
10
-5.2875000000000014
20
59.387500000000003
10
-3.0249999999999844
20
59.387500000000003
42
-0.41421356237308493
10
-2.5249999999999995
20
58.88750000000001
0
LWPOLYLINE
5
194
100
AcDbEntity
8
0
100
AcDbPolyline
90
8
70
1
43
0.0
10
-30.312500000000004
20
64.437500000000014
42
-0.41421356237309764
10
-30.812500000000004
20
64.9375
10
-30.812500000000004
20
77.9375
42
-0.41421356237309503
10
-30.312500000000004
20
78.4375
10
-25.668749999999996
20
78.4375
42
-0.41421356237309503
10
-25.168749999999996
20
77.9375
10
-25.168749999999992
20
64.9375
42
-0.41421356237309764
10
-25.668749999999996
20
64.4375
0
LWPOLYLINE
5
195
100
AcDbEntity
8
0
100
AcDbPolyline
90
8
70
1
43
0.0
10
-257.31874999999997
20
64.9375
42
-0.41421356237307422
10
-257.81875000000002
20
64.4375
10
-270.81875000000002
20
64.437500000000014
42
-0.41421356237312623
10
-271.31875000000002
20
64.9375
10
-271.31875000000002
20
77.9375
42
-0.4142135623730222
10
-270.81875000000002
20
78.4375
10
-257.81875000000002
20
78.4375
42
-0.41421356237313145
10
-257.31875000000002
20
77.9375
0
LWPOLYLINE
5
196
100
AcDbEntity
8
0
100
AcDbPolyline
90
8
70
1
43
0.0
10
-297.80000000000001
20
83.987499999999997
42
-0.41421356237313667
10
-298.30000000000001
20
83.487499999999983
10
-311.30000000000001
20
83.487499999999969
42
-0.41421356237310542
10
-311.80000000000001
20
83.987499999999997
10
-311.80000000000001
20
96.987500000000011
42
-0.41421356237310542
10
-311.30000000000001
20
97.487500000000011
10
-298.30000000000001
20
97.487500000000011
42
-0.41421356237313667
10
-297.80000000000001
20
96.987500000000011
0
LWPOLYLINE
5
197
100
AcDbEntity
8
0
100
AcDbPolyline
90
8
70
1
43
0.0
10
-193.02499999999998
20
103.03750000000001
10
-193.02499999999998
20
116.03750000000002
42
0.41421356237310542
10
-193.52499999999998
20
116.53750000000001
10
-195.78749999999999
20
116.53750000000001
42
0.41421356237307422
10
-196.28749999999999
20
116.03750000000002
10
-196.28749999999999
20
103.03750000000001
42
0.41421356237310542
10
-195.78749999999999
20
102.53749999999999
10
-193.52499999999998
20
102.53749999999999
42
0.41421356237310542
0
LWPOLYLINE
5
198
100
AcDbEntity
8
0
100
AcDbPolyline
90
8
70
1
43
0.0
10
-213.28749999999999
20
103.03750000000001
42
-0.41421356237313667
10
-213.78749999999999
20
102.53749999999999
10
-216.05000000000001
20
102.53749999999999
42
-0.41421356237313667
10
-216.55000000000001
20
103.03750000000001
10
-216.55000000000001
20
116.03750000000002
42
-0.4142135623730846
10
-216.05000000000001
20
116.53750000000001
10
-213.78749999999999
20
116.53750000000002
42
-0.41421356237313667
10
-213.28749999999999
20
116.03750000000002
0
LWPOLYLINE
5
199
100
AcDbEntity
8
0
100
AcDbPolyline
90
8
70
1
43
0.0
10
-224.36250000000001
20
102.53749999999998
42
-0.41421356237310542
10
-224.86250000000001
20
103.03750000000001
10
-224.86249999999998
20
116.03750000000002
42
-0.41421356237307422
10
-224.36250000000001
20
116.53750000000001
10
-222.10000000000002
20
116.53750000000004
42
-0.41421356237310542
10
-221.59999999999999
20
116.03750000000002
10
-221.60000000000002
20
103.03750000000001
42
-0.41421356237310542
10
-222.10000000000002
20
102.53749999999999
0
LWPOLYLINE
5
200
100
AcDbEntity
8
0
100
AcDbPolyline
90
8
70
1
43
0.0
10
-241.86250000000001
20
103.03750000000001
42
-0.41421356237313667
10
-242.36250000000001
20
102.53749999999999
10
-244.62500000000003
20
102.53749999999999
42
-0.41421356237313667
10
-245.12500000000003
20
103.03750000000001
10
-245.12500000000003
20
116.03750000000002
42
-0.4142135623730846
10
-244.62500000000003
20
116.53750000000001
10
-242.36250000000001
20
116.53750000000002
42
-0.41421356237313667
10
-241.86250000000001
20
116.03750000000002
0
LWPOLYLINE
5
201
100
AcDbEntity
8
0
100
AcDbPolyline
90
8
70
1
43
0.0
10
-241.03125000000003
20
83.487500000000011
42
-0.41421356237309503
10
-241.53125000000003
20
83.987500000000011
10
-241.53125000000003
20
96.987500000000026
42
-0.41421356237307422
10
-241.03125000000003
20
97.487500000000011
10
-236.38745
20
97.487500000000026
42
-0.41421356237307422
10
-235.88745000000003
20
96.987500000000026
10
-235.88745000000003
20
83.987500000000011
42
-0.41421356237307422
10
-236.38745
20
83.487500000000026
0
LWPOLYLINE
5
202
100
AcDbEntity
8
0
100
AcDbPolyline
90
8
70
1
43
0.0
10
-259.03125
20
97.487499999999997
10
-263.67505000000006
20
97.487499999999997
42
0.4142135623730846
10
-264.17505000000006
20
96.987500000000011
10
-264.17505000000006
20
83.987499999999997
42
0.41421356237313667
10
-263.67505000000006
20
83.487499999999983
10
-259.03125
20
83.487500000000011
42
0.41421356237307422
10
-258.53125000000006
20
83.987499999999997
10
-258.53125000000006
20
96.987500000000011
42
0.41421356237307422
0
LWPOLYLINE
5
203
100
AcDbEntity
8
0
100
AcDbPolyline
90
8
70
1
43
0.0
10
-259.69999999999999
20
45.88750000000001
42
-0.41421356237313667
10
-260.19999999999999
20
45.387500000000003
10
-262.46249999999998
20
45.387500000000003
42
-0.41421356237313667
10
-262.96249999999998
20
45.88750000000001
10
-262.96249999999998
20
58.887500000000017
42
-0.41421356237307944
10
-262.46249999999998
20
59.387500000000003
10
-260.19999999999999
20
59.387500000000024
42
-0.41421356237313667
10
-259.69999999999999
20
58.887500000000017
0
LWPOLYLINE
5
204
100
AcDbEntity
8
0
100
AcDbPolyline
90
8
70
1
43
0.0
10
-29.619250000000005
20
84.987499999999997
42
-0.41421356237308293
10
-30.369250000000001
20
84.237499999999997
10
-36.369250000000015
20
84.237499999999983
42
-0.41421356237307078
10
-37.119250000000001
20
84.987499999999997
10
-37.119250000000022
20
98.987499999999997
42
-0.41421356237308637
10
-36.369250000000001
20
99.737500000000011
10
-30.369250000000001
20
99.737499999999983
42
-0.41421356237309681
10
-29.619250000000005
20
98.987499999999997
0
LWPOLYLINE
5
205
100
AcDbEntity
8
0
100
AcDbPolyline
90
8
70
1
43
0.0
10
-279.96249999999998
20
45.88750000000001
42
-0.41421356237312623
10
-280.46249999999998
20
45.387500000000003
10
-282.72500000000002
20
45.387500000000017
42
-0.41421356237312623
10
-283.22500000000002
20
45.88750000000001
10
-283.22499999999997
20
58.887500000000017
42
-0.41421356237307422
10
-282.72500000000002
20
59.387500000000003
10
-280.46249999999998
20
59.387500000000003
42
-0.41421356237312623
10
-279.96249999999998
20
58.887500000000017
0
LWPOLYLINE
5
206
100
AcDbEntity
8
0
100
AcDbPolyline
90
24
70
1
43
0.0
10
-283.22500000000002
20
39.837499999999999
42
-0.41421356237313667
10
-282.72500000000002
20
40.337500000000006
10
-282.63799999999998
20
40.337500000000006
42
0.41421356237313667
10
-282.38799999999998
20
40.587500000000006
10
-282.38799999999998
20
41.837499999999999
42
-0.41421356237307422
10
-281.63799999999998
20
42.587499999999999
10
-275.63800000000003
20
42.587499999999991
42
-0.41421356237309503
10
-274.88800000000003
20
41.837499999999999
10
-274.88800000000003
20
40.587500000000006
42
0.41421356237326151
10
-274.63800000000003
20
40.337499999999984
10
-258.76199999999994
20
40.337499999999991
42
0.41421356237313667
10
-258.512
20
40.58750000000002
10
-258.512
20
41.837499999999999
42
-0.41421356237309503
10
-257.76200000000006
20
42.587499999999999
10
-251.762
20
42.587499999999991
42
-0.41421356237309503
10
-251.01200000000003
20
41.837499999999999
10
-251.01200000000006
20
40.587500000000006
42
0.41421356237326151
10
-250.76200000000003
20
40.337499999999984
10
-250.67500000000001
20
40.337500000000013
42
-0.41421356237310025
10
-250.17500000000001
20
39.837499999999999
10
-250.17500000000001
20
26.837499999999999
42
-0.41421356237304563
10
-250.67500000000001
20
26.337499999999999
10
-282.72500000000002
20
26.337499999999999
42
-0.41421356237313145
10
-283.22500000000002
20
26.837499999999999
0
LWPOLYLINE
5
207
100
AcDbEntity
8
0
100
AcDbPolyline
90
8
70
1
43
0.0
10
-5.743250000000014
20
84.987499999999997
42
-0.41421356237309243
10
-6.4932500000000006
20
84.237499999999997
10
-12.493249999999989
20
84.237499999999997
42
-0.41421356237311757
10
-13.24325
20
84.987499999999997
10
-13.243250000000026
20
98.987499999999997
42
-0.41421356237308721
10
-12.49325
20
99.737500000000011
10
-6.4932500000000104
20
99.737499999999983
42
-0.41421356237310375
10
-5.7432499999999997
20
98.987499999999997
0
LWPOLYLINE
5
208
100
AcDbEntity
8
0
100
AcDbPolyline
90
8
70
1
43
0.0
10
-70.793750000000003
20
102.53749999999999
42
-0.41421356237310542
10
-71.293750000000003
20
103.03750000000001
10
-71.293750000000017
20
116.03749999999998
42
-0.41421356237307944
10
-70.793750000000003
20
116.53750000000001
10
-68.531249999999986
20
116.53749999999999
42
-0.41421356237309503
10
-68.03125
20
116.03749999999999
10
-68.031249999999986
20
103.03750000000001
42
-0.41421356237310025
10
-68.53125
20
102.53749999999999
0
LWPOLYLINE
5
209
100
AcDbEntity
8
0
100
AcDbPolyline
90
8
70
1
43
0.0
10
-46.98125000000001
20
102.53749999999999
42
-0.41421356237310542
10
-47.48125000000001
20
103.03750000000001
10
-47.481250000000024
20
116.03749999999998
42
-0.41421356237307944
10
-46.98125000000001
20
116.53750000000001
10
-44.718750000000007
20
116.53749999999999
42
-0.41421356237310542
10
-44.21875
20
116.03749999999999
10
-44.218749999999993
20
103.03750000000001
42
-0.41421356237309503
10
-44.71875
20
102.53749999999999
0
LWPOLYLINE
5
210
100
AcDbEntity
8
0
100
AcDbPolyline
90
8
70
1
43
0.0
10
-172.16874999999999
20
116.03749999999999
42
-0.41421356237304302
10
-171.66874999999999
20
116.53749999999999
10
-143.51875000000004
20
116.53750000000001
42
-0.41421356237307422
10
-143.01875000000001
20
116.03749999999999
10
-143.01875000000001
20
103.03750000000001
42
-0.41421356237309503
10
-143.51875000000004
20
102.53749999999999
10
-171.66874999999999
20
102.53749999999997
42
-0.4142135623730534
10
-172.16875000000002
20
103.03750000000001
0
LWPOLYLINE
5
211
100
AcDbEntity
8
0
100
AcDbPolyline
90
8
70
1
43
0.0
10
-23.168749999999999
20
102.53749999999999
42
-0.41421356237310802
10
-23.668749999999999
20
103.03750000000001
10
-23.668750000000006
20
116.03749999999999
42
-0.41421356237307422
10
-23.168749999999999
20
116.53750000000001
10
-20.906249999999993
20
116.53749999999999
42
-0.41421356237308204
10
-20.40625
20
116.03749999999999
10
-20.406249999999989
20
103.03750000000001
42
-0.41421356237309503
10
-20.906249999999996
20
102.53749999999999
0
LWPOLYLINE
5
212
100
AcDbEntity
8
0
100
AcDbPolyline
90
8
70
1
43
0.0
10
-118.91875
20
116.03749999999999
42
-0.41421356237306384
10
-118.41874999999999
20
116.53750000000001
10
-90.26875000000004
20
116.53750000000001
42
-0.41421356237307422
10
-89.76875000000004
20
116.03749999999999
10
-89.76875000000004
20
103.03750000000001
42
-0.41421356237309503
10
-90.26875000000004
20
102.53749999999999
10
-118.41875000000002
20
102.53749999999999
42
-0.41421356237306384
10
-118.91875
20
103.03750000000001
0
ENDSEC
0
SECTION
2
OBJECTS
0
DICTIONARY
5
C
100
AcDbDictionary
3
ACAD_GROUP
350
D
3
ACAD_MLINESTYLE
350
17
0
DICTIONARY
5
D
100
AcDbDictionary
0
DICTIONARY
5
1A
330
C
100
AcDbDictionary
0
DICTIONARY
5
17
100
AcDbDictionary
0
ENDSEC
0
EOF
